# xmcd
#
# Track frame offsets: 
#        150
#        9626
#        21671
#        37025
#        50773
#        64697
#        79316
#        87614
#        100790
#        117084
#
# Disc length: 1710 seconds
#
# Revision: 0
# Processed by: cddbd v1.5.2PL0 Copyright (c) Steve Scherf et al.
# Submitted via: ExactAudioCopy v0.99pb4
#
DISCID=8706ac0a
DTITLE=Primitive Quartet, The - Laying Up Treasures
DYEAR=2006
DGENRE=Gospel
TTITLE0=They Shall Walk With Me In White
TTITLE1=Lord You Just Keep On Blessing Me
TTITLE2=No One But Jesus My Lord
TTITLE3=I Believe It All
TTITLE4=It Looks Like Everybody's Going Home
TTITLE5=Laying Up Treasures
TTITLE6=O, Happy Day
TTITLE7=Eternity With You
TTITLE8=Thomas
TTITLE9=Our Sweet Lord Is Coming Back Soon
EXTD=
EXTT0=
EXTT1=
EXTT2=
EXTT3=
EXTT4=
EXTT5=
EXTT6=
EXTT7=
EXTT8=
EXTT9=
PLAYORDER=
